<?xml version="1.0" encoding="UTF-8" standalone="no"?>
<!-- Created with Inkscape (http://www.inkscape.org/) -->

<svg
   width="88.325813mm"
   height="87.250389mm"
   viewBox="0 0 88.325813 87.250389"
   version="1.1"
   id="svg5"
   xml:space="preserve"
   xmlns:inkscape="http://www.inkscape.org/namespaces/inkscape"
   xmlns:sodipodi="http://sodipodi.sourceforge.net/DTD/sodipodi-0.dtd"
   xmlns="http://www.w3.org/2000/svg"
   xmlns:svg="http://www.w3.org/2000/svg"><sodipodi:namedview
     id="namedview7"
     pagecolor="#ffffff"
     bordercolor="#666666"
     borderopacity="1.0"
     inkscape:showpageshadow="2"
     inkscape:pageopacity="0.0"
     inkscape:pagecheckerboard="0"
     inkscape:deskcolor="#d1d1d1"
     inkscape:document-units="mm"
     showgrid="false" /><defs
     id="defs2" /><g
     inkscape:label="Layer 1"
     inkscape:groupmode="layer"
     id="layer1"
     transform="translate(-66.502008,-105.47541)"><g
       id="g3052"
       transform="matrix(0.12566876,0,0,0.12793942,64.450349,81.838299)"><path
         style="fill:#326ce5;fill-opacity:1;stroke:#ffffff;stroke-width:0;stroke-miterlimit:4;stroke-dasharray:none;stroke-opacity:1"
         d="m 365.3125,184.8125 a 46.724621,46.342246 0 0 0 -17.90625,4.53125 l -244.34375,116.75 a 46.724621,46.342246 0 0 0 -25.28125,31.4375 L 17.5,599.78125 A 46.724621,46.342246 0 0 0 23.84375,635.3125 46.724621,46.342246 0 0 0 26.5,639 l 169.125,210.28125 a 46.724621,46.342246 0 0 0 36.53125,17.4375 L 503.375,866.65625 A 46.724621,46.342246 0 0 0 539.90625,849.25 L 708.96875,638.9375 A 46.724621,46.342246 0 0 0 718,599.71875 l -60.375,-262.25 a 46.724621,46.342246 0 0 0 -25.28125,-31.4375 l -244.375,-116.6875 A 46.724621,46.342246 0 0 0 365.3125,184.8125 Z"
         id="path3055"
         inkscape:connector-curvature="0"
         inkscape:export-filename="new.png"
         inkscape:export-xdpi="250.55"
         inkscape:export-ydpi="250.55" /><path
         inkscape:connector-curvature="0"
         id="path3059"
         d="m 367.73366,274.05962 c -8.07696,8.2e-4 -14.62596,7.27591 -14.625,16.25 1e-5,0.13773 0.0282,0.26934 0.0312,0.40625 -0.0119,1.21936 -0.0708,2.68836 -0.0312,3.75 0.19262,5.176 1.3209,9.13749 2,13.90625 1.23028,10.20666 2.26117,18.66736 1.625,26.53125 -0.61869,2.9654 -2.80288,5.67741 -4.75,7.5625 l -0.34375,6.1875 c -8.77682,0.72717 -17.61235,2.05874 -26.4375,4.0625 -37.97461,8.62218 -70.67008,28.18307 -95.5625,54.59375 -1.61522,-1.10193 -4.44103,-3.12914 -5.2813,-3.75 -2.61117,0.35262 -5.25021,1.15829 -8.6875,-0.84375 -6.54491,-4.40563 -12.50587,-10.48693 -19.71875,-17.8125 -3.30498,-3.50419 -5.69832,-6.84101 -9.625,-10.21875 -0.89172,-0.76707 -2.25258,-1.80455 -3.25,-2.59375 -3.06988,-2.44757 -6.6907,-3.72402 -10.1875,-3.84375 -4.49589,-0.15394 -8.82394,1.60385 -11.65625,5.15625 -5.03521,6.31538 -3.42312,15.96805 3.59375,21.5625 0.0712,0.0567 0.14702,0.10078 0.21875,0.15625 0.96422,0.78162 2.14496,1.78313 3.03125,2.4375 4.16687,3.07655 7.9732,4.65145 12.125,7.09375 8.747,5.40181 15.99837,9.88086 21.75,15.28125 2.24602,2.39417 2.63858,6.61292 2.9375,8.4375 l 4.6875,4.1875 c -25.09342,37.76368 -36.70686,84.40946 -29.8437,131.9375 l -6.125,1.78125 c -1.6143,2.08461 -3.89541,5.36474 -6.2813,6.34375 -7.52513,2.37021 -15.99424,3.24059 -26.21875,4.3125 -4.80031,0.39915 -8.94218,0.16095 -14.03125,1.125 -1.12008,0.21218 -2.68072,0.61877 -3.90625,0.90625 -0.0426,0.009 -0.0824,0.0216 -0.125,0.0312 -0.0668,0.0155 -0.15456,0.0479 -0.21875,0.0625 -8.62014,2.08279 -14.15774,10.006 -12.375,17.8125 1.78316,7.80833 10.20314,12.55677 18.875,10.6875 0.0626,-0.0143 0.1535,-0.0167 0.21875,-0.0312 0.0979,-0.0224 0.18409,-0.0699 0.28125,-0.0937 1.20885,-0.26536 2.72377,-0.5606 3.78125,-0.84375 5.00334,-1.33963 8.62694,-3.30796 13.125,-5.03125 9.67694,-3.47077 17.69173,-6.37022 25.5,-7.5 3.26118,-0.25542 6.69711,2.01216 8.40625,2.96875 l 6.375,-1.09375 c 14.67018,45.48282 45.41416,82.24502 84.34375,105.3125 l -2.65625,6.375 c 0.95742,2.47542 2.01341,5.8247 1.30022,8.26932 -2.83868,7.3612 -7.70097,15.13097 -13.23772,23.79318 -2.68085,4.00192 -5.42453,7.10761 -7.84375,11.6875 -0.5789,1.09589 -1.31618,2.77932 -1.875,3.9375 -3.75884,8.04236 -1.00164,17.3052 6.21875,20.78125 7.26575,3.49788 16.28447,-0.19134 20.1875,-8.25 0.006,-0.0114 0.0257,-0.0198 0.0312,-0.0312 0.004,-0.009 -0.004,-0.0225 0,-0.0312 0.55593,-1.14255 1.34353,-2.64437 1.8125,-3.71875 2.07213,-4.74702 2.76161,-8.81506 4.21875,-13.40625 3.86962,-9.72014 5.99567,-19.91903 11.32258,-26.27411 1.45868,-1.74023 3.83681,-2.4095 6.30242,-3.06964 l 3.3125,-6 c 33.93824,13.0268 71.92666,16.52246 109.875,7.90625 8.65697,-1.96557 17.01444,-4.50945 25.09375,-7.5625 0.93098,1.65133 2.66113,4.8257 3.125,5.625 2.50559,0.81518 5.24044,1.23614 7.46875,4.53125 3.98539,6.80898 6.7109,14.86416 10.03125,24.59375 1.45738,4.59111 2.17762,8.65933 4.25,13.40625 0.47234,1.08195 1.256,2.60486 1.8125,3.75 3.89482,8.08484 12.94212,11.78667 20.21875,8.28125 7.2195,-3.4779 9.97974,-12.7399 6.21875,-20.78125 -0.55889,-1.15814 -1.3273,-2.84164 -1.90625,-3.9375 -2.41946,-4.57976 -5.1627,-7.65448 -7.84375,-11.65625 -5.53721,-8.66192 -10.12968,-15.8577 -12.96875,-23.21875 -1.18711,-3.79657 0.20028,-6.15774 1.125,-8.625 -0.55378,-0.63477 -1.73881,-4.22009 -2.4375,-5.90625 40.4574,-23.88816 70.29856,-62.02129 84.3125,-106.0625 1.8924,0.29742 5.18154,0.87936 6.25,1.09375 2.19954,-1.4507 4.22194,-3.34352 8.1875,-3.03125 7.80832,1.12937 15.82288,4.02973 25.5,7.5 4.49815,1.72306 8.1216,3.72313 13.125,5.0625 1.05749,0.28309 2.57238,0.5472 3.78125,0.8125 0.0972,0.0238 0.1833,0.0714 0.28125,0.0937 0.0653,0.0146 0.15615,0.0169 0.21875,0.0312 8.67236,1.86695 17.09384,-2.87871 18.875,-10.6875 1.78074,-7.80696 -3.7543,-15.73201 -12.375,-17.8125 -1.25393,-0.28513 -3.03225,-0.76938 -4.25,-1 -5.08912,-0.96378 -9.23092,-0.7261 -14.03125,-1.125 -10.22456,-1.07138 -18.6935,-1.94269 -26.21875,-4.3125 -3.06826,-1.19028 -5.25103,-4.84124 -6.31255,-6.34375 l -5.90625,-1.71875 c 3.06226,-22.15442 2.23655,-45.21134 -3.0625,-68.28125 -5.34839,-23.28471 -14.80037,-44.58084 -27.40625,-63.34375 1.51505,-1.37729 4.37619,-3.91091 5.1875,-4.65625 0.23716,-2.62417 0.0334,-5.37553 2.75,-8.28125 5.75134,-5.40069 13.00329,-9.87898 21.75,-15.28125 4.15167,-2.44252 7.98954,-4.01698 12.15625,-7.09375 0.94225,-0.69576 2.2289,-1.79759 3.21875,-2.59375 7.01538,-5.59633 8.63058,-15.24842 3.59375,-21.5625 -5.03683,-6.31408 -14.79712,-6.90883 -21.8125,-1.3125 -0.99856,0.79085 -2.35353,1.82252 -3.25,2.59375 -3.9265,3.37796 -6.35145,6.71439 -9.65625,10.21875 -7.21249,7.32595 -13.17407,13.43777 -19.71875,17.84375 -2.83601,1.65106 -6.98996,1.07978 -8.87505,0.96875 l -5.5625,3.96875 c -31.7188,-33.26057 -74.90466,-54.52546 -121.40605,-58.6563 -0.13006,-1.94872 -0.30045,-5.47117 -0.34375,-6.53125 -1.90371,-1.82165 -4.20342,-3.37686 -4.78125,-7.3125 -0.63617,-7.86389 0.42597,-16.32459 1.65625,-26.53125 0.6791,-4.76876 1.80738,-8.73025 2,-13.90625 0.0438,-1.17663 -0.0265,-2.88401 -0.0312,-4.15625 -9.6e-4,-8.97409 -6.54804,-16.25082 -14.625,-16.25 z m -18.3125,113.4375 -4.34375,76.71875 -0.3125,0.15625 c -0.29134,6.86335 -5.93996,12.34375 -12.875,12.34375 -2.84081,0 -5.46294,-0.91229 -7.59375,-2.46875 l -0.125,0.0625 -62.90625,-44.59375 c 19.33365,-19.01115 44.06291,-33.06039 72.5625,-39.53125 5.20599,-1.18203 10.40966,-2.0591 15.59375,-2.6875 z m 36.65625,0 c 33.27347,4.09232 64.04501,19.15882 87.625,42.25 l -62.5,44.3125 -0.21875,-0.0937 c -5.54745,4.05169 -13.36343,3.04639 -17.6875,-2.375 -1.77132,-2.22096 -2.70072,-4.83239 -2.8125,-7.46875 l -0.0625,-0.0312 z m -147.625,70.875 57.4375,51.375 -0.0625,0.3125 c 5.18437,4.50697 5.94888,12.32794 1.625,17.75 -1.7712,2.22105 -4.14208,3.71074 -6.6875,4.40625 l -0.0625,0.25 -73.625,21.25 c -3.74728,-34.26517 4.32855,-67.57364 21.375,-95.34375 z m 258.15625,0.0312 c 8.5341,13.83256 14.99655,29.28214 18.84375,46.03125 3.80106,16.54828 4.75499,33.06697 3.1875,49.03125 l -74,-21.3125 -0.0625,-0.3125 c -6.6265,-1.81104 -10.69893,-8.55162 -9.15625,-15.3125 0.63203,-2.76962 2.10222,-5.11264 4.09375,-6.84375 l -0.0312,-0.15625 57.125,-51.125 z m -140.65625,55.3125 h 23.53125 l 14.625,18.28125 -5.25,22.8125 -21.125,10.15625 -21.1875,-10.1875 -5.25,-22.8125 z m 75.4375,62.5625 c 0.99997,-0.0505 1.99558,0.0396 2.96875,0.21875 l 0.125,-0.15625 76.15625,12.875 c -11.1455,31.3131 -32.47281,58.44018 -60.96875,76.59375 l -29.5625,-71.40625 0.0937,-0.125 c -2.71561,-6.30999 0.002,-13.70956 6.25,-16.71875 1.59965,-0.77041 3.27089,-1.19701 4.9375,-1.28125 z m -127.90625,0.3125 c 5.81174,0.0815 11.02462,4.11525 12.375,10.03125 0.63219,2.76958 0.3245,5.51375 -0.71875,7.9375 l 0.21875,0.28125 -29.25,70.6875 c -27.34716,-17.5486 -49.12927,-43.82403 -60.78125,-76.06245 l 75.5,-12.8125 0.125,0.15625 c 0.84451,-0.15541 1.701,-0.2304 2.53125,-0.21875 z m 63.78125,30.9688 c 2.02445,-0.0744 4.07865,0.34098 6.03125,1.28125 2.55951,1.23253 4.53673,3.17319 5.78125,5.5 h 0.28125 l 37.21875,67.25 c -4.83029,1.61923 -9.79609,3.00308 -14.875,4.15625 -28.46453,6.4629 -56.83862,4.50467 -82.53125,-4.25 l 37.125,-67.125 h 0.0625 c 2.22767,-4.16441 6.45247,-6.64887 10.90625,-6.8125 z"
         style="color:#000000;font-style:normal;font-variant:normal;font-weight:normal;font-stretch:normal;font-size:medium;line-height:normal;font-family:Sans;-inkscape-font-specification:Sans;text-indent:0;text-align:start;text-decoration:none;text-decoration-line:none;letter-spacing:normal;word-spacing:normal;text-transform:none;writing-mode:lr-tb;direction:ltr;baseline-shift:baseline;text-anchor:start;display:inline;overflow:visible;visibility:visible;fill:#ffffff;fill-opacity:1;stroke:#ffffff;stroke-width:0.25;stroke-miterlimit:4;stroke-dasharray:none;stroke-opacity:1;marker:none;enable-background:accumulate"
         sodipodi:nodetypes="ccccccccsccccscssccsccccccccscccsccccccccccccccscccscsccsccccscscsccccccccscccscsccccsccccscscscccccccccccccccscccsccccccccccccscccccscccccccccccccccccccccccscccscccccccccscccscccc"
         inkscape:export-filename="./path3059.png"
         inkscape:export-xdpi="250.55"
         inkscape:export-ydpi="250.55" /></g></g><g
     inkscape:groupmode="layer"
     id="layer2"
     inkscape:label="Layer 2"
     transform="translate(-66.502008,-105.47541)"><ellipse
       style="fill:#ffffff;stroke-width:0.264583"
       id="path448"
       cx="110.65338"
       cy="150.94974"
       rx="22.026184"
       ry="21.719908" /></g><g
     inkscape:groupmode="layer"
     id="layer3"
     inkscape:label="Layer 3"
     transform="translate(-66.502008,-105.47541)"><g
       id="g607"
       transform="matrix(0.15434238,0,0,0.15434238,91.48164,135.6965)"><path
         d="m 94.919222,42.18621 -16.954771,2.754241 -15.469572,6.782506 -13.139673,8.264716 -12.504155,15.258397 -7.063409,7.481774 -6.831315,2.518164 -1.805946,-4.415751 3.158662,-4.559191 0.709229,-6.429883 2.115736,0.08567 2.311969,2.108763 -0.623565,-6.550413 -2.562988,-1.719284 0.07869,-2.496249 -6.070288,3.434584 -5.496529,6.485665 -1.147518,5.796358 2.351813,4.641868 2.192436,7.885199 4.458584,2.110754 4.690677,-0.230101 4.447626,-2.583906 -2.967408,15.047219 2.967408,16.7416 -3.266241,7.7308 -10.697214,11.52498 1.901572,6.8861 5.068202,7.97884 9.554677,6.72373 5.068203,0.69429 5.634988,0.19125 -3.516264,14.43163 12.928497,5.29731 16.106086,2.11972 5.509479,-3.60193 0.424342,-9.74992 6.146988,-10.17226 0.423347,-8.05354 14.83505,1.05986 13.775193,-1.27104 -13.775193,8.26472 2.331893,9.96109 8.68806,13.56302 8.47789,3.60292 6.78151,-2.75524 2.75424,-5.50947 14.19953,-10.80878 2.75524,2.33089 22.25307,0.84769 4.44962,-3.60193 0.42335,-6.35916 -1.48221,-2.75324 -1.06086,-17.16694 -7.41703,-14.83505 1.27203,-6.57034 4.44962,2.33189 12.50416,11.65547 6.14599,0.42434 6.78151,-2.75523 6.78251,-5.08613 3.38976,-11.02095 19.92217,1.27203 12.07982,-4.66179 9.74892,-9.1134 6.99368,-13.139672 1.69438,-15.470568 -1.48321,-18.01463 -3.8141,-16.10509 -3.8151,-5.086132 -5.2973,-1.696374 -9.32558,10.172265 -8.47688,2.967408 -7.41803,-12.291984 -7.41702,-6.78151 -4.02727,-2.543066 L 185.62391,12.303938 172.6974,5.3102568 159.7689,4.251393 144.72268,6.7944591 131.583,11.667424 l -9.1134,7.418023 -7.20485,8.689059 -7.41703,2.11972 -12.928498,12.291984"
         fill="#ffff00"
         id="path541" /><path
         d="m 45.7473,80.434802 c -14.522273,16.938832 -11.295876,37.481588 -7.271596,57.609958 -2.147611,-5.4278 -4.296218,-10.85559 -6.443829,-16.2804 -0.791906,-4.97557 -1.583813,-9.95113 -2.374723,-14.92669 0.226116,-5.08813 0.451237,-10.175257 0.67835,-15.262386 2.035051,-4.861012 4.070101,-9.723019 6.105152,-14.585027 3.052077,-4.522335 6.105151,-9.044669 9.158225,-13.568 4.748452,-3.956545 9.497899,-7.914086 14.246351,-11.870631 5.199688,-2.148607 10.401369,-4.296217 15.602054,-6.444824 C 81.552436,44.315891 87.657588,43.52498 93.763735,42.733074 88.109821,49.176903 82.456903,55.621728 76.803984,62.065556 63.186179,66.482303 55.156545,69.457681 45.7473,80.434802"
         fill="#ffffcc"
         id="path543" /><path
         d="m 114.11424,28.825401 c -10.09556,9.850521 -15.611018,17.279502 -22.035921,28.812451 -4.595051,8.250771 -9.75091,16.196732 -14.583035,24.331953 -2.443455,4.117915 -2.674553,7.570428 -3.405697,12.31888 -2.373727,-2.825961 -4.747455,-5.652918 -7.122178,-8.47888 1.131579,-3.392747 2.261167,-6.784498 3.391751,-10.176249 3.843984,-6.897058 7.688964,-13.794116 11.532949,-20.690179 8.140202,-8.027642 16.281401,-16.054288 24.421601,-24.08193 2.59985,-0.679346 5.20069,-1.3567 7.80053,-2.036046"
         fill="#ffffcc"
         id="path545" /><path
         d="m 163.97547,4.4047938 c -8.08741,3.0311595 -21.51595,4.0302568 -22.44731,13.3110042 -0.66341,6.591253 0.49705,9.903315 4.46954,16.877074 -9.81267,-10.155331 -12.23919,-8.583471 -31.20511,-5.427798 2.7144,-3.843985 5.4278,-7.687969 8.1402,-11.531953 4.74846,-2.940514 9.4979,-5.880031 14.24635,-8.819549 6.10516,-1.3567004 12.2113,-2.7134008 18.31645,-4.0701012 2.82597,-0.1125603 5.65292,-0.2251206 8.47988,-0.338677"
         fill="#ffffcc"
         id="path547" /><path
         d="m 186.28831,129.9454 c 2.69149,1.66151 2.63371,2.86581 2.18347,4.00436 2.12371,-0.84968 4.24741,-1.69936 6.37012,-2.54705 1.37662,-1.84778 2.75125,-3.69457 4.12787,-5.54235 1.02102,-2.63272 2.04203,-5.26344 3.06304,-7.89616 -1.3049,-0.98116 -2.60881,-1.96233 -3.91471,-2.9435 -5.70272,0.72716 -11.40545,1.45532 -17.10917,2.18447 -0.42334,1.1515 -0.84868,2.30499 -1.27402,3.45849 0.12153,1.6376 0.24405,3.2762 0.36458,4.9138 0.54586,0.97121 1.09273,1.94142 1.6386,2.91263 0.84968,0.42434 1.69836,0.84968 2.54804,1.27402 0.66839,0.0598 1.33479,0.12152 2.00218,0.18129"
         fill="#cccc00"
         id="path549" /><path
         d="m 184.69553,100.6857 c -8.5765,2.47533 -8.50976,3.15766 -11.04187,11.66643 3.34295,-5.36405 5.81828,-8.07148 11.04187,-11.66643"
         fill="#cccc00"
         id="path551" /><path
         d="m 241.71978,37.015409 c -1.52404,0.704249 -3.00924,1.042926 -3.96152,2.437478 -2.05199,3.002272 -3.81012,5.527409 -7.20287,7.634179 -1.70932,1.061852 -3.47642,1.749167 -5.28834,2.314957 -1.50313,0.467175 -2.4066,0.04881 -3.6856,0.969214 0.75903,0.131487 1.51807,0.264965 2.2771,0.397448 h 5.02039 c 2.06294,-1.274024 4.12588,-2.548047 6.18883,-3.821074 1.21425,-1.27502 2.42751,-2.549043 3.64077,-3.823066 1.00309,-2.036047 2.00716,-4.074086 3.01124,-6.109136"
         fill="#cccc00"
         id="path553" /><path
         d="M 105.10842,56.047066 C 101.7346,65.28 98.786117,73.194086 93.676078,81.552436 100.2245,74.496 104.19499,68.498428 107.94634,60.520591 c 1.4573,-3.098894 1.73223,-6.735688 5.79137,-5.383968 0.18229,3.095906 0.83673,6.188825 1.01803,9.282739 2.19343,-15.718599 8.37727,-22.292918 22.75212,-28.394086 -4.06512,0.486101 -8.13024,0.971206 -12.19437,1.456312 -3.82306,0.84968 -7.64513,1.699361 -11.4682,2.548046 -1.88065,2.730335 -3.7623,5.461666 -5.64196,8.191004 -1.03197,2.608809 -2.06294,5.217619 -3.09491,7.826428"
         fill="#cccc00"
         id="path555" /><path
         d="m 132.95664,55.683486 c 3.10088,14.590008 7.56445,28.593308 9.50288,43.415409 1.25908,9.631375 1.39654,14.258305 -3.44853,22.567845 -5.29631,-0.34266 -8.58447,0.25401 -13.70746,1.93345 -20.39234,6.68488 -32.088651,16.51449 -45.829974,-3.29115 4.386864,2.06693 8.773728,4.13385 13.160592,6.20178 3.126786,-0.6146 6.253572,-1.2282 9.380362,-1.8448 5.52143,-3.21444 11.04286,-6.43088 16.56429,-9.64532 4.30718,-0.84968 8.61535,-1.69936 12.92252,-2.54904 1.39555,-5.82326 2.7911,-11.6485 4.18665,-17.47275 -1.03197,-7.705898 -2.06394,-15.410801 -3.09491,-23.1167 -0.12053,-3.639782 -0.24206,-7.279564 -0.36358,-10.920342 0.24305,-1.760125 0.4861,-3.519253 0.72716,-5.278382"
         fill="#cccc00"
         id="path557" /><path
         d="m 168.08641,145.96283 c -1.71331,11.8537 3.94459,18.22581 1.60175,21.50002 -0.66341,0.92638 -1.5619,2.54406 -2.56499,2.98832 -3.58499,1.58282 -8.51374,-0.29684 -8.86537,0.62955 h -11.83078 c -1.57784,-0.6674 -3.15468,-1.33479 -4.73251,-2.00218 2.42652,-2.85186 4.85304,-5.70372 7.28056,-8.55459 2.36575,-5.15586 4.73251,-10.31371 7.09827,-15.47156 1.51707,-5.21762 3.03415,-10.43524 4.55022,-15.65286 h 2.36676 c 1.69836,5.52143 3.39773,11.04187 5.09609,16.5633"
         fill="#cccc00"
         id="path559" /><path
         d="m 148.20109,111.50244 c 0.96125,5.38198 2.63072,6.66098 5.16184,11.87063 -1.68542,8.4998 -4.39185,18.60732 -7.65012,26.10702 -1.37364,3.16265 -2.4823,4.90684 -4.90584,7.35129 -4.08902,4.12986 -8.22288,7.72582 -12.86076,11.30583 -3.33896,2.57295 -5.66886,1.28299 -9.78777,0.69927 -1.75215,3.1756 -2.23526,4.93971 -5.45967,6.55241 -4.95863,2.47832 -9.3953,-2.86282 -13.288093,-6.00654 2.810023,4.38886 5.620043,8.77672 8.428083,13.16557 1.94241,1.82089 3.88382,3.63879 5.82524,5.45967 1.6376,0.24206 3.2762,0.48611 4.9148,0.72916 2.18347,-1.33479 4.36794,-2.67057 6.55141,-4.00536 1.15349,-2.18347 2.30599,-4.36794 3.45849,-6.55141 2.42752,-1.82088 4.85503,-3.64077 7.28056,-5.46166 2.97339,-2.54705 5.94677,-5.09609 8.91916,-7.64414 1.88165,-2.66957 3.76131,-5.33815 5.64296,-8.00872 1.69836,-3.15467 3.39673,-6.30935 5.09509,-9.46403 2.18547,-6.5524 4.36894,-13.1058 6.5544,-19.65721 0.18129,-2.48828 0.36258,-4.97557 0.54487,-7.46385 -2.73033,-1.21226 -5.45967,-2.42751 -8.191,-3.64077 -2.00218,-1.87966 -4.23147,-3.4565 -6.23365,-5.33716"
         fill="#cccc00"
         id="path561" /><path
         d="m 82.903159,149.42132 c 9.186117,0 18.888221,-0.51001 27.302351,-4.36893 2.3807,-3.57105 4.73152,-6.48866 7.64414,-9.64532 -2.65065,5.00744 -3.4824,7.83838 -4.18565,13.46838 -0.91044,1.33479 -1.81989,2.66858 -2.73033,4.00436 -6.91699,0.18129 -13.83297,0.36358 -20.74995,0.54587 -2.24523,-0.24405 -4.489463,-0.4861 -6.734693,-0.72815 -0.24305,-0.24405 -0.485105,-0.48611 -0.728155,-0.72816 0.06176,-0.84968 0.122521,-1.69936 0.182287,-2.54805"
         fill="#cccc00"
         id="path563" /><path
         d="m 81.629136,143.05121 c -0.237074,-2.15359 -0.475144,-4.30818 -0.713214,-6.46376 -1.568871,9.4471 -1.192342,15.77937 -5.540358,24.24231 -3.247315,3.7623 -7.246692,7.18593 -11.826801,9.01877 0.387486,2.31994 0.503035,3.77127 0.277914,5.47163 -0.806848,6.11909 -13.047035,3.41565 -18.082366,3.17161 8.07944,2.08087 16.156887,4.15975 24.235331,6.23962 1.820887,-0.72815 3.639782,-1.45531 5.460669,-2.18347 0.607627,-3.51826 1.214257,-7.0385 1.820887,-10.55676 1.698366,-3.15468 3.397728,-6.31135 5.096094,-9.46403 0.302817,-1.94341 0.60663,-3.88283 0.910443,-5.82525 -0.546863,-4.55022 -1.091735,-9.10045 -1.638599,-13.65067"
         fill="#cccc00"
         id="path565" /><path
         d="m 67.977463,89.720529 c -0.253012,4.594055 -0.549852,6.508576 1.475237,10.565731 2.574942,5.15586 5.737588,10.00193 8.535658,15.09802 0.303813,-3.39872 0.60663,-6.79545 0.910444,-10.19318 -3.639783,-5.15786 -7.280561,-10.313715 -10.921339,-15.470571"
         fill="#cccc00"
         id="path567" /><path
         d="m 30.614412,124.42098 c -0.788918,1.67645 -1.575844,3.3539 -2.364762,5.03135 2.168529,7.30446 4.096996,11.93139 8.225868,18.31246 -0.719191,2.58491 -1.25709,3.71649 -2.911627,5.82326 -3.633805,-0.55782 -6.861198,-0.72019 -10.543813,-0.70824 4.06512,3.15368 8.130241,6.31035 12.195362,9.46503 2.001183,-0.36557 4.004358,-0.72915 6.006537,-1.09273 2.001183,-2.00218 4.004358,-4.00436 6.006537,-6.00654 -2.85186,-4.4297 -5.70372,-8.8574 -8.554584,-13.2871 -2.687502,-5.84516 -5.374008,-11.69232 -8.059518,-17.53749"
         fill="#cccc00"
         id="path569" /><path
         d="m 241.74568,34.598848 c 2.47633,11.137494 5.66985,21.416343 5.37301,32.823782 -0.36358,13.995331 -3.09092,31.674273 -16.05827,40.11331 -14.52227,9.45208 -31.56968,4.98154 -47.50344,0.93136 6.49264,2.67057 12.98528,5.33914 19.47592,8.00872 6.0673,0.30381 12.1346,0.60762 18.2019,0.90944 4.12588,-1.21226 8.25177,-2.42552 12.37665,-3.63878 3.21544,-2.67057 6.43188,-5.33915 9.64732,-8.00972 2.42652,-5.09609 4.85304,-10.192182 7.28056,-15.288275 0.91044,-5.886008 1.81989,-11.77102 2.72934,-17.656031 -0.72716,-5.764483 -1.45631,-11.527969 -2.18347,-17.291456 -1.33479,-5.702723 -2.67057,-11.406443 -4.00436,-17.109167 -1.77805,-1.265058 -3.55611,-2.529121 -5.33516,-3.793183"
         fill="#cccc00"
         id="path571" /><path
         d="m 25.028233,67.795175 c -6.592249,4.291237 -9.182132,6.17488 -8.458957,14.127813 0.656436,2.381697 1.313868,4.763393 1.970304,7.14509 0.931362,0.630537 1.861727,1.260078 2.792093,1.889618 1.150506,0.383502 2.300016,0.766008 3.450522,1.14951 2.080871,-0.492078 4.161743,-0.985151 6.241618,-1.478226 1.068825,-3.313058 2.136654,-6.62512 3.203487,-9.938178 -2.956452,1.45133 -5.913899,2.902661 -8.870351,4.353992 h -2.05298 c -0.766008,-1.177401 -1.533012,-2.354802 -2.300016,-3.532203 0.931362,-1.369649 1.861728,-2.737307 2.79309,-4.106957 0.493074,-2.60084 0.985152,-5.201681 1.478225,-7.802521 0.629541,0.191253 1.259082,0.383502 1.888623,0.573759 0.767004,0.603642 1.533012,1.206288 2.300016,1.806941 -0.109572,-1.367657 -0.219144,-2.737307 -0.328716,-4.105961 -0.519969,-0.87558 -1.040934,-1.752155 -1.560903,-2.627735 -0.519969,-0.439284 -1.039938,-0.876576 -1.559907,-1.314864 -0.328716,1.286973 -0.657432,2.573945 -0.986148,3.859922"
         fill="#cccc00"
         id="path573" /><path
         d="m 172.93846,5.1299611 c 5.85114,5.4337739 13.03209,10.1563269 17.71281,16.7963889 1.81092,2.569961 3.82306,3.884825 -0.0309,7.515642 4.07209,-1.163455 5.58518,-1.036949 8.84545,-0.64249 5.92983,0.718194 11.48812,9.148264 11.84174,15.188669 -0.0697,0.564794 -1.64657,1.847782 -6.23166,3.113837 -0.0906,0.176311 -2.58789,-0.341666 -2.52613,-0.172327 0.47714,1.30291 1.11365,1.503128 2.08585,2.112747 0.21118,1.450335 0.34665,3.686599 1.33479,5.272405 2.88473,-0.0518 5.70471,0.262972 8.52968,0.82179 0.95029,1.577836 0.80784,3.154677 0.72815,4.732513 1.09174,-0.181292 2.18347,-0.36358 3.27621,-0.544871 -0.30282,-2.488281 -0.60663,-4.975565 -0.90945,-7.462849 0.97021,-1.638599 1.94042,-3.277198 2.91163,-4.913805 -1.39555,-3.156669 -2.7911,-6.31035 -4.18665,-9.466023 -2.66858,-2.548047 -5.33815,-5.096094 -8.00872,-7.644141 -0.256,-0.01295 -0.51498,-0.0259 -0.76999,-0.03885 -3.00327,-1.842801 -6.00454,-3.684607 -9.00682,-5.527408 -4.89687,-4.006351 -9.79274,-8.011705 -14.68961,-12.018055 -3.6358,-2.3747235 -7.2706,-4.7484512 -10.9064,-7.1231749"
         fill="#cccc00"
         id="path575" /><path
         d="m 182.79496,49.976778 c -0.3088,0.539891 -0.77498,1.402522 -1.37165,2.000187 2.43649,2.304996 3.63879,3.848965 4.50839,7.10923 -2.75523,1.367657 -5.51047,2.736311 -8.26471,4.102972 -2.33189,2.235269 -4.66378,4.470537 -6.99368,6.70481 -3.06901,-1.651549 -3.83303,-2.919596 -5.31823,-6.069292 -1.72924,0.45821 -3.36685,0.89849 -4.79527,0.374537 0.90646,0.007 1.46229,-0.219144 2.36775,-0.778957 1.48321,-1.540981 2.96741,-3.081961 4.45062,-4.622942 2.61977,-1.984249 5.24053,-3.969494 7.86029,-5.953743 1.7153,-0.558817 3.42961,-1.117634 5.14491,-1.676452 0.65444,-0.268949 1.75614,-0.920404 2.41158,-1.19035"
         fill="#cccc00"
         id="path577" /><path
         d="m 190.39925,58.198661 c -8.76476,4.719565 -17.15997,9.466024 -21.64146,18.429012 0,-11.37656 11.42338,-16.384996 21.64146,-18.429012"
         fill="#cccc00"
         id="path579" /><path
         d="m 167.01759,35.818086 c -6.50858,4.437665 -11.1106,13.393681 -10.53286,22.121587 -2.11972,-7.557478 -1.36865,-14.698584 5.14092,-19.918194 1.09871,-0.533915 2.19642,-1.068825 3.29513,-1.601744 0.69927,-0.200217 1.39754,-0.400435 2.09681,-0.601649"
         fill="#cccc00"
         id="path581" /><path
         d="m 254.60545,56.423595 c -1.18139,-7.442926 -3.13775,-14.667704 -5.85314,-19.862412 -0.33071,-0.635518 -0.83275,-1.279004 -1.45432,-1.893603 -1.34873,-1.329806 -3.34593,-2.588887 -5.40887,-3.298117 -2.18646,-0.752062 -4.49146,-0.905463 -6.32131,0.0508 -0.47514,0.249027 -0.91642,0.569774 -1.30988,0.969214 -1.18537,1.201307 -2.18447,2.65961 -3.18556,4.121898 -1.11365,1.627643 -2.23327,3.263253 -3.57304,4.406786 -1.55293,1.327814 -3.49634,2.133666 -5.32918,2.86979 -0.80386,-1.943408 -1.72825,-3.721463 -2.77317,-5.390941 -1.25311,-1.998195 -2.67953,-3.868888 -4.2494,-5.740576 -1.28299,-1.527035 -2.53111,-2.674553 -3.88184,-3.702537 -1.35371,-1.032965 -2.7393,-1.902568 -4.35399,-2.912623 -4.3271,-2.710412 -8.0117,-5.94179 -11.77002,-9.239906 -1.70733,-1.498148 -3.43259,-3.010242 -5.12,-4.401806 C 181.07268,5.0203891 172.7243,1.4413696 163.79617,0.8795642 c -8.86736,-0.55782101 -18.23079,1.8786615 -29.2856,6.5324825 -5.33516,2.2452296 -9.29768,4.8988643 -12.7492,8.0894003 -3.29712,3.051082 -6.09619,6.562366 -9.17317,10.663347 -1.791,0.127502 -3.37581,0.392467 -4.99548,1.040934 -1.78404,0.713214 -3.58002,1.8687 -5.73162,3.76828 -1.52703,1.345743 -2.988322,2.701447 -4.400804,4.067113 -1.322833,1.279003 -2.606817,2.580918 -3.872872,3.896778 -10.064685,1.616685 -18.264654,3.401712 -25.607969,6.246599 -7.509665,2.908638 -14.129805,6.911004 -20.929245,12.940451 -2.778148,2.462382 -5.182755,5.065214 -7.287533,7.822444 -2.067922,2.70842 -3.838008,5.556296 -5.390942,8.559564 -1.360684,1.505121 -2.722365,3.024187 -4.197603,4.352996 -1.438381,1.294942 -2.971393,2.385681 -4.688685,3.047098 l 9.97e-4,9.96e-4 c -0.999098,0.384498 -1.412483,0.609618 -1.457308,0.594677 -0.04981,-0.02789 -0.0777,-0.177308 -0.14842,-0.45323 2.467362,-2.354801 2.854848,-5.813292 3.082957,-9.247875 0.295844,0.354614 0.580732,0.79091 0.87558,1.246132 0.325727,0.503035 0.659424,1.022008 1.05986,1.527035 l 1.674459,2.112747 0.5887,-2.635704 c 0.49407,-2.208374 0.863627,-5.149884 0.287876,-7.699922 -0.372545,-1.654537 -1.140545,-3.129775 -2.478319,-4.174693 0.128498,-0.334693 0.249027,-0.64249 0.36856,-0.946304 0.420358,-1.074801 0.852669,-2.177494 1.220234,-3.219424 l 0.725167,-2.06593 -2.159564,0.374537 c -2.873775,0.499051 -9.050646,3.89379 -13.399658,8.40716 -1.615689,1.676451 -3.004264,3.529214 -3.915704,5.473619 -0.948296,2.023097 -1.372638,4.139828 -1.005074,6.258552 0.320747,1.851767 1.247128,3.668669 2.930552,5.383969 0.306802,1.236171 0.589697,2.30898 0.892514,3.277198 0.346646,1.101697 0.720187,2.086849 1.187362,3.056063 1.266054,2.632716 3.284171,4.240436 5.61905,4.990505 1.877666,0.602646 3.953557,0.63253 5.989604,0.187269 -0.397448,2.301012 -0.648467,4.706615 -0.746086,7.334352 -0.128498,3.43558 -0.003,7.23075 0.375533,11.63455 0.08268,0.96623 0.207191,2.03007 0.36856,3.18556 0.139456,0.98615 0.305806,1.95436 0.485105,2.91561 -0.380513,1.03794 -0.763019,2.07788 -1.144529,3.11583 -0.592685,1.6117 -1.185369,3.2254 -1.777058,4.8371 -1.303907,1.29195 -2.607813,2.58391 -3.910724,3.87487 -1.216249,1.2023 -2.433494,2.40859 -3.649743,3.61388 -0.100607,0.10061 -0.511004,0.49407 -0.882553,0.85267 -2.465369,2.37173 -2.953463,2.84289 -2.253198,7.01759 0.427331,2.558 1.269043,5.14988 2.58291,7.64912 1.210273,2.30499 2.83393,4.54923 4.91779,6.63906 2.600841,2.60682 6.862195,5.84417 11.323767,7.53955 2.550039,0.96921 5.17877,1.44237 7.645136,1.04691 -0.12551,0.37952 -0.248031,0.75804 -0.38649,1.14055 -0.388483,1.07281 -0.82179,2.14661 -1.300919,3.19751 -3.026178,6.63508 0.08069,10.09954 4.916794,12.30493 2.414568,1.1007 5.285354,1.84778 7.952934,2.54406 0.545868,0.14045 1.091736,0.28389 1.779051,0.46917 3.16165,0.85466 8.622319,2.42353 13.609836,2.7383 5.443736,0.34466 10.353557,-0.77895 11.669417,-5.66587 0.520965,-1.93643 0.823782,-3.42063 0.946303,-4.87296 0.113557,-1.34774 0.06973,-2.71041 -0.08766,-4.39583 1.551937,-3.43956 2.210365,-4.40678 3.344933,-6.0663 0.222133,-0.32772 0.491082,-0.72019 0.571767,-0.84371 1.217245,-1.80295 1.787019,-3.08295 1.99421,-4.52432 0.199222,-1.39057 0.03088,-2.77616 -0.221136,-4.89488 -0.02391,-0.20122 -0.06076,-0.49507 -0.11256,-0.88355 3.186552,0.4084 6.32828,0.62755 9.452077,0.64747 1.585806,0.01 3.170615,-0.0369 4.755424,-0.12053 -0.40442,0.20819 -0.801867,0.41339 -1.236171,0.63651 -0.192249,0.0986 -0.390474,0.20122 -0.589696,0.30382 -4.20358,2.16155 -4.378895,6.25656 -3.063035,10.4691 1.186366,3.79916 3.627829,7.67801 5.159844,10.03779 3.220425,4.96262 6.293415,9.16321 10.018865,11.44629 3.90575,2.39365 8.36732,2.67555 14.12682,-0.44128 2.92956,-1.5868 3.85394,-3.20348 5.09808,-5.38297 0.38052,-0.6654 0.80088,-1.39057 1.26805,-2.10577 1.21127,-0.80187 4.2235,-3.28617 7.18095,-5.73161 1.00607,-0.83176 2.01214,-1.66052 3.1477,-2.58491 0.78195,0.57476 1.72626,0.9742 2.86681,1.24614 1.48221,0.35461 3.24731,0.51498 5.36205,0.66639 1.58282,0.11655 6.74466,0.11256 10.07963,0.11157 1.02997,0 1.88563,0 2.39863,0.003 3.44255,0.0209 6.22169,-0.16037 8.32149,-1.34972 2.23826,-1.26905 3.56508,-3.51627 3.85494,-7.54652 0.12651,-1.79001 0.14942,-2.8937 -0.0986,-4.0213 -0.23209,-1.05587 -0.68532,-2.01214 -1.46328,-3.41267 -0.0468,-1.74119 -0.0936,-3.48339 -0.13946,-5.22459 -0.0488,-1.84778 -0.0996,-3.69656 -0.14842,-5.54334 -0.0588,-2.17849 -0.29883,-3.94758 -0.74111,-5.68878 -0.43828,-1.72925 -1.06384,-3.39275 -1.90157,-5.38795 -0.56778,-1.34973 -1.02798,-2.58989 -1.47822,-3.80614 l -1.20828,0.44228 0.18627,-0.0687 1.02201,-0.37354 v -0.005 c -0.72019,-1.94241 -1.43042,-3.83302 -2.42453,-5.85612 0.0647,-0.39048 0.12949,-0.80984 0.19225,-1.25809 0.6395,0.61759 1.28,1.23418 1.9195,1.84978 l 2.82994,2.72734 c 2.15857,2.07888 4.13186,3.9695 6.44981,5.33616 2.39664,1.41447 5.09211,2.23527 8.58247,2.06991 3.65373,-0.17232 7.56346,-1.71131 10.78288,-4.08604 3.11384,-2.29902 5.61308,-5.39891 6.656,-8.8295 0.30182,-0.99213 0.60365,-1.98525 0.90347,-2.97638 0.24007,-0.79091 0.48112,-1.58381 0.72218,-2.37572 5.12399,0.86861 10.6235,1.14852 15.93575,0.59269 5.12598,-0.5389 10.07863,-1.8438 14.34895,-4.1219 6.27848,-3.34992 10.98509,-8.28464 14.36788,-14.14375 l 0.002,9.9e-4 c 3.78023,-6.548418 5.89697,-14.264278 6.70182,-22.204262 0.64448,-6.368125 0.29286,-15.025307 -1.03296,-23.374693 z m -66.38768,53.517945 c -2.95246,-0.99312 -5.00544,-2.44345 -7.60031,-4.07807 0.70624,3.18257 1.02799,6.54842 0.0877,9.72601 -1.49217,5.04131 -3.90176,13.28909 2.94251,14.81114 2.60582,0.57874 3.7872,0.49507 7.46484,-1.40252 -2.97638,0.67437 -4.47751,0.50901 -6.52352,0.1295 -1.85376,-0.34067 -2.83692,-1.51807 -3.3549,-2.90665 0.64747,0.46718 1.70435,0.72118 3.5093,1.15648 5.07417,1.22322 9.90929,-1.22023 10.85559,-4.73849 0.55085,-2.05597 0.45722,-3.13575 1.62565,-5.9378 1.0499,0.32473 2.13566,0.61958 3.24931,0.88952 -0.62855,2.049 -1.25709,4.09999 -1.88564,6.14898 -1.63063,5.32022 -7.98481,9.60946 -13.59489,9.51185 -5.18674,-0.0916 -8.4749,-3.33996 -12.05591,-6.52551 -2.46636,-2.19642 -4.84009,-4.29522 -7.1929,-6.3751 -6.45479,-2.03704 -11.62858,-4.41675 -17.61918,-8.85143 4.26335,5.00944 7.15506,7.7836 13.10083,10.27686 -0.86462,8.82055 -3.92965,15.25142 -6.54344,23.69245 -1.18338,3.8161 -10.5209,19.11135 -13.10879,20.60252 -1.8448,1.06285 -13.40265,10.79683 -15.57616,12.08181 -1.61967,2.1506 -3.04112,5.12199 -5.47561,6.40797 -7.41802,3.92267 -12.1854,-3.58799 -16.17681,-9.93121 -1.8179,-2.89071 -6.865182,-11.21419 -2.46537,-13.54608 4.16075,-2.2024 6.49065,-3.77725 10.73507,-6.56436 0.62356,1.13656 1.69338,2.23427 2.39066,3.36983 -0.1534,-1.24214 -0.3078,-2.48329 -0.46319,-3.72644 -0.27891,-2.25021 -0.26796,-4.07707 -0.0887,-6.34123 0.17333,-2.19144 0.34466,-4.38387 0.51699,-6.57631 -0.63851,2.2283 -1.91453,4.45659 -2.55204,6.68389 -0.255,0.89152 -0.46617,1.61171 -0.5877,2.2791 -9.5238,1.9464 -18.978864,2.06792 -28.50565,0.36856 -0.607627,-3.52722 -1.347736,-7.20187 -1.968312,-9.83658 -0.188264,2.95048 -0.06674,11.10761 -0.08268,15.67577 -0.01195,3.53818 -0.160373,4.74945 -1.985245,7.76068 -1.708327,2.817 -2.431502,3.4575 -4.824155,8.2189 0.199221,3.00526 0.203206,4.99051 -0.594677,7.84237 -1.327814,4.74147 -14.720499,1.06782 -18.252701,0.1006 -4.351004,-1.19134 -13.344871,-2.96043 -11.082708,-8.75978 1.990226,-5.10506 3.252296,-10.48704 4.224498,-17.62914 C 40.788669,142.46749 33.376623,126.73195 31.954179,112.78942 30.849494,101.9647 31.511907,95.301728 33.854755,88.679595 37.566257,78.18758 42.759969,69.106054 51.09242,61.792623 62.331517,51.930148 72.838475,47.969619 89.289214,45.465401 c -3.956545,4.4287 -7.870257,9.111408 -12.136591,14.132794 -4.318133,5.083143 -6.884109,10.217089 -9.626397,15.777369 -3.788203,7.679004 -3.706522,10.601588 1.314863,17.343253 4.327098,5.810304 6.662973,8.425093 8.552592,14.110883 -1.559907,3.21544 -2.127689,5.93382 -2.651642,10.32566 5.298303,5.79237 9.235922,9.76087 14.380825,10.9831 5.046288,1.19931 9.259829,0.96722 13.775186,-1.33977 10.02684,-5.12697 19.3046,-11.74711 30.61641,-12.02004 5.23256,-12.86475 4.70363,-23.614759 2.19144,-36.062136 -1.7163,-8.500794 -2.40461,-16.549355 -2.93753,-25.215502 -2.12171,8.925136 -2.52015,16.773478 -0.9463,25.663751 1.89759,10.713151 3.37282,22.550907 -1.90556,31.966127 -10.22804,0.78295 -18.9938,7.00564 -28.21179,11.77999 -3.705529,1.9195 -7.563459,2.10677 -11.66444,0.98117 -3.807128,-1.04592 -6.376093,-3.56508 -10.477074,-8.2946 -0.06475,-4.74945 1.007066,-6.94089 3.187549,-11.24209 3.504311,-6.907018 7.371206,-13.335905 11.615626,-20.13136 -5.1967,6.272498 -10.120467,11.513027 -14.21049,17.81939 -1.563891,-4.4536 -3.79916,-6.715764 -7.502693,-11.731172 -3.616871,-4.898864 -3.995393,-7.043487 -1.290957,-12.713339 2.719378,-5.696747 5.02537,-10.704186 9.654288,-15.701665 7.997759,-8.637261 15.32414,-18.248716 24.069981,-26.755486 4.74944,-4.617962 6.67791,-4.458584 12.97631,-5.412856 5.69376,-0.863627 11.25204,-1.952374 17.05836,-3.301106 -5.61506,0.522958 -11.04286,0.715207 -16.5105,0.850678 -0.0568,0.002 -0.11256,0.004 -0.16934,0.005 5.37899,-6.869167 8.50079,-10.697214 17.23567,-14.493385 21.50799,-9.3405137 35.1736,-10.3505682 52.06861,3.850957 4.37889,3.681619 8.20296,7.254662 12.64261,10.430257 -1.60971,0.137463 -2.99729,0.426335 -4.83212,1.146521 2.23327,-0.425338 4.8122,-0.004 7.13015,0.420358 0.65046,0.42235 1.31884,0.833743 2.00317,1.237168 3.13476,1.846786 4.91381,2.866801 7.03353,5.820264 2.24025,3.120809 4.10795,6.239627 5.75352,9.677199 -1.07878,-0.385495 -1.98325,-0.711222 -2.7891,-0.950288 -0.59368,-0.272934 -1.23916,-0.451238 -1.92349,-0.517977 -1.3557,-0.13049 -2.65264,0.203206 -3.73342,0.868607 -0.0438,0.01992 -0.0867,0.03984 -0.13049,0.06076 -1.73422,0.843704 -4.41973,1.805945 -6.21671,2.097805 0.91642,0.316763 2.9445,0.4353 3.90076,0.05678 0.1275,-0.0508 0.25799,-0.08965 0.39147,-0.121525 -0.43131,0.734132 -0.71222,1.566879 -0.79987,2.468358 -0.11456,1.194335 0.12849,2.33986 0.64149,3.334973 0.002,0.003 0.003,0.006 0.005,0.01096 0.16237,0.38151 0.38749,0.733136 0.63552,0.987144 -0.8208,0.302817 -1.65952,0.648467 -2.52414,1.024 4.00834,-0.610615 7.62222,-0.715206 11.53394,-0.200218 0.258,1.233183 0.51798,2.540078 0.75904,3.868887 -0.48511,0.03785 -0.96822,0.07471 -1.45332,0.113557 -0.0379,0.003 -0.0787,0.007 -0.11755,0.01096 -1.85077,-1.479222 -3.91271,-1.231191 -6.72971,-0.587704 -8.56753,1.953369 -6.55439,6.760591 -10.495,14.004295 4.09201,-5.002459 3.7882,-10.236015 10.45715,-11.815844 1.55393,-0.367564 2.6118,-0.828763 3.66369,-0.670381 -1.89261,0.95228 -3.53021,2.531113 -4.17967,4.363953 -1.83085,5.168809 -0.69429,9.523798 -2.70544,14.351938 2.49127,-4.31614 2.64169,-8.527689 4.86898,-13.06895 0.79988,-1.63063 3.76828,-4.241432 5.59116,-4.281276 0.50105,-0.01195 0.9991,-0.02191 1.50014,-0.03287 0.43929,2.872779 0.70625,5.725635 0.53591,8.091393 -0.31078,4.318133 -1.4324,10.727098 -2.10378,13.179518 2.25619,-2.900669 3.28417,-9.043673 4.2753,-13.368778 1.03197,-4.502413 0.77099,-9.906304 -0.13248,-14.743409 -1.23916,-6.637074 5.59614,-5.557292 9.56464,-8.685074 2.9166,-2.300015 4.92575,-5.971673 7.60031,-8.57351 2.65263,-2.578926 6.82832,1.211269 7.87224,3.732421 4.52433,10.946241 6.58528,28.167969 5.39095,39.202864 -1.34176,12.381634 -7.3224,25.898838 -18.24274,31.995018 -13.92262,7.77065 -30.3375,3.02319 -44.16947,-1.6376 z m -19.78172,54.99418 c -0.45423,5.10904 -2.15658,5.44672 -6.64305,5.36803 -2.03804,-0.0359 -10.15434,-0.0727 -12.21429,-0.25002 -2.90964,-0.25102 -4.54325,-0.51101 -5.43278,-1.17442 4.57214,-3.35589 12.34079,-17.21276 13.85488,-21.98312 1.60174,-5.03932 3.35489,-9.43814 4.6588,-14.09594 0.59966,1.9464 1.07381,3.87586 1.9464,5.94378 1.4573,3.4555 2.16952,5.59116 2.27411,9.29768 0.10958,3.91073 0.22014,7.82245 0.33071,11.73317 1.25211,2.19244 1.44735,2.66061 1.22522,5.16084 z M 30.842521,126.2339 c 2.903658,10.04277 7.849339,19.91222 13.332919,28.20881 0,0.0478 -9.96e-4,0.0956 -9.96e-4,0.14543 -0.344654,1.42643 -0.741106,2.815 -1.574849,3.93065 -3.918692,5.24351 -13.887751,-2.45342 -16.773478,-5.39792 -3.153681,-3.22142 -5.265432,-7.03452 -5.768467,-10.61254 -0.365572,-2.60881 -0.01,-2.67256 1.80993,-4.51835 2.453416,-2.4843 4.909821,-4.96959 7.362241,-7.45289 0.536903,-1.4344 1.074802,-2.86979 1.6127,-4.30319 z M 25.298179,63.073619 c -0.744093,1.597758 -1.272031,2.808031 -1.631626,4.054163 -1.562895,5.397914 0.707237,10.216093 -4.193619,14.128809 2.303004,4.646849 2.197416,6.499611 7.55449,4.352997 2.06593,-0.828763 3.770272,-1.990226 5.291331,-3.36386 -0.725167,1.874677 -1.397541,3.80912 -2.031066,5.806319 -0.105588,0.330708 -0.206195,0.663408 -0.303814,0.99312 -3.831035,1.62565 -8.869354,2.658615 -10.797821,-1.367657 -0.936342,-1.954366 -1.465276,-3.872872 -2.14761,-6.342226 -6.309354,-6.536467 3.121805,-15.166755 8.259735,-18.261665 z m 3.100887,6.923953 c -0.778957,-0.778957 -1.402521,-1.306895 -2.408591,-1.192342 0.08467,-0.660421 0.197229,-1.296934 0.356607,-1.895596 0.08068,-0.307797 0.16635,-0.609618 0.257992,-0.912436 1.305899,0.761028 1.650553,2.139643 1.793992,4.000374 z M 217.57709,45.583938 c 0.23807,0.502039 0.47216,1.013042 0.70226,1.530023 -0.19026,0.139455 -0.37155,0.286879 -0.54089,0.442272 -0.31079,-0.727159 -0.76202,-1.386583 -1.32084,-1.938428 0.37653,-0.01394 0.76202,-0.0259 1.15947,-0.03387 z m -182.144499,29.669105 -9.96e-4,-9.96e-4 z m -20.535782,6.938895 h 9.96e-4 z M 83.93214,154.36103 h 0.002 z m 56.86288,16.97569 v 0 h -0.001 z m 23.11072,-43.92642 h 0.001 l -0.001,10e-4 z M 25.948638,83.11035 v -9.96e-4 l -9.96e-4,9.96e-4 -0.04184,-0.111564 0.04283,0.111564 z m 221.854382,18.23776 v 0 l 0.0299,0.0179 z"
         fill="#000000"
         id="path583" /><path
         d="M 3.6875953,81.53849 C 4.6916731,70.170895 6.9020389,65.263066 14.97849,56.707486 4.8480623,63.846599 2.3199377,67.090926 3.6875953,81.53849"
         fill="#000000"
         id="path585" /><path
         d="m 1.0748016,72.252763 c 1.115642,-5.116016 2.1555797,-7.046475 5.3092607,-11.24607 -5.1170117,3.575035 -5.78440471,5.043299 -5.3092607,11.24607"
         fill="#000000"
         id="path587" /><path
         d="m 119.92454,0.9343502 c -6.06829,1.4622879 -7.22577,2.5849027 -9.04566,8.5336654 2.90366,-4.3559845 4.57612,-5.7734475 9.04566,-8.5336654"
         fill="#000000"
         id="path589" /><path
         d="M 129.49516,0.06773541 C 117.45818,3.0182101 113.921,5.1160156 109.92261,19.066521 115.00476,8.8494319 118.85373,5.0871284 129.49516,0.06773541"
         fill="#000000"
         id="path591" /><path
         d="m 155.41889,50.924078 c 1.28299,-5.683798 3.56309,-11.161401 12.3906,-15.398848 -11.70129,2.930552 -13.89472,7.844358 -12.3906,15.398848"
         fill="#000000"
         id="path593" /><path
         d="m 229.86708,51.316545 c 6.92894,-2.47035 10.26889,-8.040592 11.92841,-14.594989 -2.71241,5.493541 -6.89706,10.087596 -12.58285,12.901603 -3.05108,1.509106 -4.99947,0.98316 -8.40617,0.660421 3.46447,0.994116 5.6589,2.245229 9.06061,1.032965"
         fill="#000000"
         id="path595" /><path
         d="m 182.66546,56.886786 c -0.92339,-1.93544 -2.54107,-3.322023 -4.41376,-4.008342 1.69937,-0.907456 3.36884,-1.860732 4.67175,-3.045105 -3.81509,1.766101 -8.25674,1.334785 -11.52996,3.546147 -2.88373,1.947393 -6.86319,8.119284 -9.79374,10.736063 2.12271,-0.823782 4.16772,-2.248218 6.04937,-3.750351 0.008,1.116639 0.25301,2.247222 0.76402,3.319035 0.76302,1.597759 1.99719,2.819985 3.45849,3.584 -1.05488,1.389572 -1.93046,2.945495 -2.55702,4.670755 5.57921,-6.612171 13.66861,-11.605665 21.2739,-13.741323 -2.12569,-0.02988 -4.64286,0.367565 -7.20685,1.210273 -0.0936,-0.85267 -0.32672,-1.704343 -0.7162,-2.521152"
         fill="#000000"
         id="path597" /><path
         d="m 174.63782,106.84862 c -0.27094,1.71231 -0.64249,3.84 -0.91343,5.55331 0.72417,-1.93843 1.59676,-4.19063 2.43947,-6.03841 0.89451,-1.95536 1.39754,-2.13964 3.29413,-3.17161 1.34475,-0.73214 3.78721,-1.73821 5.13196,-2.47035 -1.3836,0.23309 -3.86391,0.7421 -5.24751,0.97519 -3.69656,0.62456 -4.13186,1.51209 -4.70462,5.15187"
         fill="#000000"
         id="path599" /><path
         d="m 111.49945,40.745837 c -4.29024,4.240435 -8.45596,18.790599 -9.78776,24.61186 2.0978,-4.836109 7.34531,-18.363269 11.37158,-21.804825 1.11166,-0.951285 1.88862,-1.535004 2.72336,-1.959347 -2.88174,4.832125 -2.67057,6.034428 -1.65852,12.509137 0.85864,-6.582289 3.13475,-9.125355 6.87016,-14.036172 4.09401,-1.027984 7.92604,-2.258179 12.12564,-3.896778 -4.7365,0.535907 -9.46603,1.025992 -14.20452,1.474241 -3.97846,0.377526 -4.61895,0.312778 -7.43994,3.101884"
         fill="#000000"
         id="path601" /><path
         d="m 169.93917,65.514086 c -0.78194,-1.635611 -0.0827,-3.605915 1.55692,-4.385868 1.6396,-0.78095 3.61389,-0.08367 4.39583,1.552934 0.0747,0.155393 0.13348,0.31477 0.18229,0.474148 -1.56588,1.162459 -3.00128,2.531113 -4.20557,4.116918 -0.80984,-0.325728 -1.52803,-0.918413 -1.92947,-1.758132"
         fill="#ffffcc"
         id="path603" /><path
         d="m 206.57307,51.342444 c 0.13149,-1.355705 1.28698,-2.354802 2.64168,-2.223316 1.35372,0.131487 2.35481,1.341759 2.22432,2.696467 -0.0289,0.288872 -0.10659,0.558817 -0.22313,0.807845 -1.24016,0.212171 -2.48031,0.574755 -3.75832,1.044918 -0.53392,-0.546864 -0.95925,-1.544965 -0.88455,-2.325914"
         fill="#ffffcc"
         id="path605" /></g></g></svg>
